<svg  width="292.799" height="585.598" viewBox="0 0 292.799 585.598">
  <g id="Grupo_4" data-name="Grupo 4" transform="translate(-1133.6 -323.6)">
    <path id="Trazado_136" data-name="Trazado 136" d="M140.36,0V146.4h146.4v-.688A145.711,145.711,0,0,0,141.048,0Z" transform="translate(1139.64 323.6)" fill="#343a40"/>
    <path id="Trazado_100" data-name="Trazado 100" d="M286.76,146.4V0H140.36V.688A145.711,145.711,0,0,0,286.071,146.4Z" transform="translate(993.24 470)" fill="#fff"/>
    <path id="Trazado_139" data-name="Trazado 139" d="M140.36,146.4V0h146.4V.688A145.711,145.711,0,0,1,141.048,146.4Z" transform="translate(1139.64 762.799)" fill="#6c757d"/>
    <path id="Trazado_102" data-name="Trazado 102" d="M286.76,0V146.4H140.36v-.688A145.711,145.711,0,0,1,286.071,0Z" transform="translate(993.24 323.6)" fill="#a5a5a5"/>
    <path id="Trazado_103" data-name="Trazado 103" d="M286.76,146.4V0H140.36V.688A145.711,145.711,0,0,0,286.071,146.4Z" transform="translate(993.24 762.799)" fill="#fff"/>
    <path id="Trazado_137" data-name="Trazado 137" d="M140.36,0V146.4h146.4v-.688A145.711,145.711,0,0,0,141.048,0Z" transform="translate(1139.64 616.4)" fill="#343a40"/>
    <circle id="Elipse_2" data-name="Elipse 2" cx="67.2" cy="67.2" r="67.2" transform="translate(1292 482)" fill="#ced4da"/>
    <circle id="Elipse_15" data-name="Elipse 15" cx="67.2" cy="67.2" r="67.2" transform="translate(1133.6 616.4)" fill="#acb2b7"/>
  </g>
</svg>
