<svg xmlns="http://www.w3.org/2000/svg" width="44.496" height="28" viewBox="0 0 44.496 28">
  <g id="behance_hero" transform="translate(-1572 -51.5)">
    <path id="Unión_1" data-name="Unión 1" d="M13.569,28H0V0L13.176,0a17.382,17.382,0,0,1,3.647.354,7.865,7.865,0,0,1,2.823,1.157A5.382,5.382,0,0,1,21.47,3.645a7.517,7.517,0,0,1,.647,3.294,6.132,6.132,0,0,1-.96,3.528,6.977,6.977,0,0,1-2.843,2.313,6.73,6.73,0,0,1,3.863,2.608,7.763,7.763,0,0,1,1.275,4.49,7.71,7.71,0,0,1-.824,3.667,7.134,7.134,0,0,1-2.215,2.531,9.8,9.8,0,0,1-3.176,1.452,14.349,14.349,0,0,1-3.643.47ZM6.157,23.215h6.587a8.237,8.237,0,0,0,1.726-.176,4.231,4.231,0,0,0,1.451-.588,2.961,2.961,0,0,0,1-1.118,3.843,3.843,0,0,0,.373-1.8,3.621,3.621,0,0,0-1.216-3.078,5.179,5.179,0,0,0-3.215-.92h-6.7Zm0-11.884,6.234,0a4.424,4.424,0,0,0,2.706-.785A2.963,2.963,0,0,0,16.156,8,3.272,3.272,0,0,0,15.8,6.39a2.6,2.6,0,0,0-.94-.98,3.983,3.983,0,0,0-1.353-.49,9,9,0,0,0-1.588-.137H6.157ZM30.3,27.233a8.949,8.949,0,0,1-3.255-2.176,9.792,9.792,0,0,1-2.059-3.375,12.328,12.328,0,0,1-.725-4.314A11.818,11.818,0,0,1,25,13.138,9.8,9.8,0,0,1,30.4,7.491a10.5,10.5,0,0,1,4.219-.823,9.66,9.66,0,0,1,4.509,1,9.016,9.016,0,0,1,3.157,2.685,11.08,11.08,0,0,1,1.785,3.843,14.347,14.347,0,0,1,.392,4.509H29.826A5.634,5.634,0,0,0,31.2,22.627,4.965,4.965,0,0,0,34.8,23.843,4.954,4.954,0,0,0,37.7,23a3.522,3.522,0,0,0,1.491-1.783h4.9a9.307,9.307,0,0,1-3.6,5.216A10.615,10.615,0,0,1,34.609,28,11.546,11.546,0,0,1,30.3,27.233Zm1.942-15.915a4.232,4.232,0,0,0-1.412,1.117,4.085,4.085,0,0,0-.745,1.411,6.3,6.3,0,0,0-.255,1.333h9.062a6.467,6.467,0,0,0-1.4-3.218v0a3.908,3.908,0,0,0-3.039-1.1A4.838,4.838,0,0,0,32.238,11.318ZM28.874,4.56V1.422H40.192V4.56Z" transform="translate(1572 51.5)"/>
  </g>
</svg>
