<svg xmlns="http://www.w3.org/2000/svg" width="124.055" height="124.002" viewBox="0 0 124.055 124.002">
  <g id="book_icon" transform="translate(0.004 0.002)">
    <path id="Trazado_150" data-name="Trazado 150" d="M2.45,123.49h41a2.55,2.55,0,0,0,2.42-2.68V23.13l30.7,99.08a2.46,2.46,0,0,0,1.22,1.53,2.39,2.39,0,0,0,1.08.26,2.13,2.13,0,0,0,.76-.13L99,116.48a2.75,2.75,0,0,0,1.5-3.4L88.07,72.86l19,48a2.4,2.4,0,0,0,2.23,1.62,2.71,2.71,0,0,0,1-.21l12.31-6a2.56,2.56,0,0,0,1.26-1.48,2.86,2.86,0,0,0,0-2L88.8,24.4A2.59,2.59,0,0,0,87.46,23a2.19,2.19,0,0,0-1.84,0L74.31,28.57,66,1.79A2.47,2.47,0,0,0,64.77.26,2.31,2.31,0,0,0,62.93.13L45.84,6.64V3.15A2.54,2.54,0,0,0,43.42.47h-41A2.54,2.54,0,0,0,0,3.15V120.9a2.61,2.61,0,0,0,2.45,2.59Zm45-111.88L62.28,6l3.79,12.2L51.24,23.85ZM95.16,112.1l-14.83,5.65-4.06-13.09L91.1,99ZM75.23,101.26l-23-74L67.11,21.6l23,74ZM4.87,95.65H20.54v1.91H4.87ZM20.58,28.23H4.91V26.32H20.58Zm0,3.57V92.08H4.91V31.8ZM4.87,101.13H20.54v2.68H4.87Zm0,6.21H20.54v1.91H4.87Zm15.71-90.8H4.91V14.63H20.58Zm0,3.57v2.68H4.91V20.11ZM4.87,112.82H20.54v5.31H4.87ZM25.37,5.74H41.05V118.13H25.37Zm-4.79,0v5.32H4.91V5.74ZM85.39,29l33,83.45-7.86,3.82-33-83.44Z" fill="#ced4da"/>
    <path id="Trazado_151" data-name="Trazado 151" d="M12.72,90.16a5.62,5.62,0,0,0,5.33-5.9V39.62a5.63,5.63,0,0,0-5.33-5.91A5.63,5.63,0,0,0,7.4,39.62V84.21C7.4,87.49,9.77,90.16,12.72,90.16Zm-2.1-50.54a2.25,2.25,0,0,1,2.1-2.34,2.26,2.26,0,0,1,2.11,2.34V84.21a2.25,2.25,0,0,1-2.11,2.34,2.24,2.24,0,0,1-2.1-2.34Z" fill="#ced4da"/>
    <path id="Trazado_152" data-name="Trazado 152" d="M33.23,16.88a5.63,5.63,0,0,0-5.33,5.91v78.34A5.63,5.63,0,0,0,33.23,107a5.63,5.63,0,0,0,5.33-5.91V22.79a5.63,5.63,0,0,0-5.33-5.91Zm2.11,84.25a2.12,2.12,0,1,1-4.22,0V22.79a2.12,2.12,0,1,1,4.22,0Z" fill="#ced4da"/>
    <path id="Trazado_153" data-name="Trazado 153" d="M65.69,32.91a1.81,1.81,0,0,0-1,2.25L80.94,87.57a1.64,1.64,0,0,0,1.54,1.19,2.431,2.431,0,0,0,.53-.08,1.81,1.81,0,0,0,1-2.26L67.72,34a1.57,1.57,0,0,0-2.03-1.09Z" fill="#ced4da"/>
    <path id="Trazado_154" data-name="Trazado 154" d="M65.69,47.78a1.55,1.55,0,0,0-2-1.1,1.82,1.82,0,0,0-1,2.25l9,29.2a1.62,1.62,0,0,0,1.53,1.19,2.52,2.52,0,0,0,.54-.08,1.8,1.8,0,0,0,1-2.25Z" fill="#ced4da"/>
  </g>
</svg>
