<svg id="css_diseño_web" xmlns="http://www.w3.org/2000/svg" width="216.563" height="163.033" viewBox="0 0 216.563 163.033">
  <rect id="Rectángulo_26" data-name="Rectángulo 26" width="214.17" height="160.64" rx="3.81" transform="translate(1.188 1.188)" fill="#fff"/>
  <path id="Trazado_116" data-name="Trazado 116" d="M208.721,163.033H7.842A7.859,7.859,0,0,1,0,155.191V7.842A7.842,7.842,0,0,1,7.842,0H208.686a7.859,7.859,0,0,1,7.877,7.842v147.35A7.859,7.859,0,0,1,208.721,163.033ZM7.877,2.358A5.449,5.449,0,0,0,2.393,7.842v147.35a5.449,5.449,0,0,0,5.449,5.484H208.686a5.449,5.449,0,0,0,5.449-5.449V7.842a5.449,5.449,0,0,0-5.449-5.449Z" transform="translate(0 0)" fill="#1d4557"/>
  <path id="Trazado_117" data-name="Trazado 117" d="M214.85,21.316V7.344A6.654,6.654,0,0,0,208.213.69H7.334A6.672,6.672,0,0,0,.68,7.327V21.3Z" transform="translate(0.508 0.515)" fill="#212529"/>
  <path id="Trazado_118" data-name="Trazado 118" d="M216.562,23.018H0V7.842A7.842,7.842,0,0,1,7.842,0H208.686a7.859,7.859,0,0,1,7.877,7.842ZM2.393,20.626H214.17V7.842a5.449,5.449,0,0,0-5.449-5.449H7.842A5.449,5.449,0,0,0,2.393,7.842Z" transform="translate(0 0)" fill="#212529"/>
  <path id="Trazado_119" data-name="Trazado 119" d="M15.953,8.337A4.087,4.087,0,1,1,11.867,4.25a4.087,4.087,0,0,1,4.087,4.087Z" transform="translate(5.808 3.173)" fill="#fff"/>
  <path id="Trazado_120" data-name="Trazado 120" d="M26.133,8.337A4.087,4.087,0,1,1,22.047,4.25a4.087,4.087,0,0,1,4.087,4.087Z" transform="translate(13.407 3.173)" fill="#fff"/>
  <path id="Trazado_121" data-name="Trazado 121" d="M36.3,8.337a4.069,4.069,0,1,1-1.186-2.889A4.087,4.087,0,0,1,36.3,8.337Z" transform="translate(20.998 3.172)" fill="#fff"/>
  <rect id="Rectángulo_27" data-name="Rectángulo 27" width="47.679" height="48.744" transform="translate(21.988 40.274)" fill="#212529"/>
  <path id="Trazado_122" data-name="Trazado 122" d="M61.964,73.517H11.91V22.38H61.964ZM14.3,71.124H59.589V24.773H14.3Z" transform="translate(8.89 16.706)" fill="#212529"/>
  <rect id="Rectángulo_28" data-name="Rectángulo 28" width="47.679" height="48.744" transform="translate(84.617 40.274)" fill="#ced4da"/>
  <path id="Trazado_123" data-name="Trazado 123" d="M97.831,73.517H47.76V22.38H97.831ZM50.153,71.124H95.439V24.773H50.153Z" transform="translate(35.651 16.706)" fill="#ced4da"/>
  <rect id="Rectángulo_29" data-name="Rectángulo 29" width="47.679" height="48.744" transform="translate(147.228 40.274)" fill="#a5a5a5"/>
  <path id="Trazado_124" data-name="Trazado 124" d="M133.674,73.517H83.62V22.38h50.054ZM86.03,71.124H131.3V24.773H86.03Z" transform="translate(62.42 16.706)" fill="#a5a5a5"/>
  <rect id="Rectángulo_30" data-name="Rectángulo 30" width="47.661" height="7.999" transform="translate(22.006 106.43)" fill="#212529"/>
  <path id="Trazado_125" data-name="Trazado 125" d="M61.964,70.679H11.91V60.2H61.964ZM14.3,68.286H59.589V62.68H14.3Z" transform="translate(8.89 44.938)" fill="#212529"/>
  <rect id="Rectángulo_31" data-name="Rectángulo 31" width="47.661" height="7.999" transform="translate(22.006 121.345)" fill="#a5a5a5"/>
  <path id="Trazado_126" data-name="Trazado 126" d="M61.964,79.182H11.91V68.79H61.964ZM14.3,76.789H59.589V71.183H14.3Z" transform="translate(8.89 51.35)" fill="#a5a5a5"/>
  <path id="Trazado_127" data-name="Trazado 127" d="M52.109,87.374H11.94V77H52.109ZM14.28,84.981H49.716V79.375H14.28Z" transform="translate(8.913 57.478)"/>
  <path id="Trazado_128" data-name="Trazado 128" d="M84.922,70.679H47.67V60.2H84.922ZM49.993,68.286H82.565V62.68H49.993Z" transform="translate(35.584 44.938)"/>
  <rect id="Rectángulo_32" data-name="Rectángulo 32" width="47.661" height="7.999" transform="translate(84.442 121.345)" fill="#ced4da"/>
  <path id="Trazado_129" data-name="Trazado 129" d="M97.724,79.182H47.67V68.79H97.724ZM49.993,76.789H95.4V71.183H49.993Z" transform="translate(35.584 51.35)" fill="#ced4da"/>
  <rect id="Rectángulo_33" data-name="Rectángulo 33" width="47.661" height="7.999" transform="translate(84.442 135.648)" fill="#212529"/>
  <path id="Trazado_130" data-name="Trazado 130" d="M97.724,87.374H47.67V77H97.724ZM49.993,84.981H95.4V79.375H49.993Z" transform="translate(35.584 57.478)" fill="#212529"/>
  <rect id="Rectángulo_34" data-name="Rectángulo 34" width="47.661" height="7.999" transform="translate(146.896 106.43)" fill="#a5a5a5"/>
  <path id="Trazado_131" data-name="Trazado 131" d="M133.484,70.679H83.43V60.2h50.054ZM85.805,68.286h45.286V62.68H85.805Z" transform="translate(62.278 44.938)" fill="#a5a5a5"/>
  <path id="Trazado_132" data-name="Trazado 132" d="M125.772,79.182H83.42V68.79h42.352ZM85.813,76.789H123.4V71.183H85.813Z" transform="translate(62.271 51.35)"/>
  <rect id="Rectángulo_35" data-name="Rectángulo 35" width="47.679" height="7.999" transform="translate(146.896 135.648)" fill="#212529"/>
  <path id="Trazado_133" data-name="Trazado 133" d="M133.491,87.374H83.42V77h50.071ZM85.813,84.981H131.1V79.375H85.813Z" transform="translate(62.271 57.478)" fill="#212529"/>
</svg>
