<svg xmlns="http://www.w3.org/2000/svg" width="28" height="28" viewBox="0 0 28 28">
  <path id="dribbble_footer" d="M14,0A14,14,0,1,0,28,14,14,14,0,0,0,14,0Zm9.24,6.454a11.908,11.908,0,0,1,2.7,7.44,28.333,28.333,0,0,0-8.322-.381c-.09-.2-.168-.409-.258-.622-.244-.577-.515-1.168-.79-1.73A15.777,15.777,0,0,0,23.24,6.454ZM14,2.066a11.931,11.931,0,0,1,7.927,3,13.529,13.529,0,0,1-6.272,4.312,64.68,64.68,0,0,0-4.455-7A12.144,12.144,0,0,1,14,2.066ZM8.912,3.186a75.666,75.666,0,0,1,4.435,6.91A44.8,44.8,0,0,1,2.293,11.556,12.009,12.009,0,0,1,8.912,3.189ZM2.036,14.014V13.65a43.593,43.593,0,0,0,12.284-1.7c.35.669.666,1.352.972,2.036l-.47.134A19.09,19.09,0,0,0,5.1,22a11.928,11.928,0,0,1-3.066-7.988ZM14,25.964a11.869,11.869,0,0,1-7.333-2.52c.213-.44,2.64-5.116,9.383-7.47a.082.082,0,0,0,.076-.031,49.386,49.386,0,0,1,2.551,9.066A11.76,11.76,0,0,1,14,25.964Zm6.667-2.05A51.59,51.59,0,0,0,18.343,15.4a17.433,17.433,0,0,1,7.44.515A11.844,11.844,0,0,1,20.667,23.915Z" fill="#ced4da" fill-rule="evenodd"/>
</svg>
