<svg xmlns="http://www.w3.org/2000/svg" width="123.999" height="124" viewBox="0 0 123.999 124">
  <path id="gear" d="M101,440a9,9,0,0,1-9-9V416.17q-1.809-.569-3.569-1.313-1.742-.737-3.4-1.628L74.5,423.763a9,9,0,0,1-12.728,0l-3.536-3.535a9,9,0,0,1,0-12.728l10.535-10.535q-.89-1.653-1.627-3.4Q66.4,391.81,65.83,390H51a9,9,0,0,1-9-9v-5a9,9,0,0,1,9-9H65.529a39.815,39.815,0,0,1,1.614-4.57q.737-1.742,1.627-3.4L58.236,348.5a9,9,0,0,1,0-12.728l3.536-3.535a9,9,0,0,1,12.728,0l10.534,10.534q1.653-.89,3.4-1.628Q90.19,340.4,92,339.83V325a9,9,0,0,1,9-9h5a9,9,0,0,1,9,9v14.53a39.831,39.831,0,0,1,4.569,1.613q1.742.737,3.4,1.628L133.5,332.237a9,9,0,0,1,12.728,0l3.536,3.535a9,9,0,0,1,0,12.728l-10.535,10.535q.89,1.653,1.627,3.4A39.818,39.818,0,0,1,142.47,367H157a9,9,0,0,1,9,9v5a9,9,0,0,1-9,9H142.17q-.569,1.809-1.314,3.57-.737,1.742-1.627,3.4L149.764,407.5a9,9,0,0,1,0,12.728l-3.536,3.535a9,9,0,0,1-12.728,0l-10.534-10.534q-1.653.89-3.4,1.628A39.837,39.837,0,0,1,115,416.47V431a9,9,0,0,1-9,9Zm5-41a9.105,9.105,0,0,1,.935.048,21.193,21.193,0,0,0,11.406-5.38l1.331-1.331A21.192,21.192,0,0,0,125,381.242c0-.081,0-.161,0-.243v-5a9.113,9.113,0,0,1,.048-.936,21.185,21.185,0,0,0-5.376-11.4l-1.331-1.331a21.192,21.192,0,0,0-11.406-5.38A9.1,9.1,0,0,1,106,357h-5c-.081,0-.162,0-.243,0a21.191,21.191,0,0,0-11.1,5.334l-1.334,1.334a21.186,21.186,0,0,0-5.375,11.4A9.114,9.114,0,0,1,83,376v5c0,.081,0,.162,0,.243a21.193,21.193,0,0,0,5.33,11.093l1.334,1.334a21.191,21.191,0,0,0,11.1,5.334c.081,0,.161,0,.243,0Z" transform="translate(-42 -316)" fill="#343a40"/>
</svg>
