<svg xmlns="http://www.w3.org/2000/svg" width="135.844" height="125.645" viewBox="0 0 135.844 125.645">
  <g id="language_icon" transform="translate(-1376.7 -1522.55)">
    <g id="english" transform="translate(1378.09 1523.05)">
      <path id="Trazado_155" data-name="Trazado 155" d="M251.721,273.889h-.066a59.4,59.4,0,0,1-7.668-.488,1.135,1.135,0,0,1,.29-2.244,57.24,57.24,0,0,0,7.378.475,1.148,1.148,0,0,1,1.162,1.135,1.1,1.1,0,0,1-1.1,1.122Zm7.589-.488a1.148,1.148,0,0,1-1.122-.99,1.135,1.135,0,0,1,.977-1.32,57.306,57.306,0,0,0,7.312-1.452,1.127,1.127,0,1,1,.581,2.178,59.136,59.136,0,0,1-7.6,1.518Zm-22.649-1.452h-.29a60.944,60.944,0,0,1-7.352-2.481,1.148,1.148,0,0,1-.607-1.478,1.135,1.135,0,0,1,1.478-.62,56.253,56.253,0,0,0,7.061,2.389,1.135,1.135,0,0,1-.29,2.231Zm37.313-2.481a1.135,1.135,0,0,1-.436-2.178,54.183,54.183,0,0,0,6.679-3.313,1.135,1.135,0,0,1,1.135,1.967,61.638,61.638,0,0,1-6.943,3.432,1.32,1.32,0,0,1-.436.092Zm-51.343-3.326a1.214,1.214,0,0,1-.568-.145,60.379,60.379,0,0,1-6.454-4.316,1.122,1.122,0,1,1,1.32-1.782,58.179,58.179,0,0,0,6.2,4.131,1.135,1.135,0,0,1,.422,1.544,1.122,1.122,0,0,1-.924.568Zm64.476-4.316a1.122,1.122,0,0,1-.686-2.019,59.967,59.967,0,0,0,5.6-4.923,1.129,1.129,0,1,1,1.6,1.6,59.607,59.607,0,0,1-5.821,5.121,1.122,1.122,0,0,1-.686.224Zm-76.553-4.95a1.122,1.122,0,0,1-.792-.33,59.607,59.607,0,0,1-5.121-5.821,1.135,1.135,0,0,1,.2-1.584,1.122,1.122,0,0,1,1.584.211,58.453,58.453,0,0,0,4.936,5.6,1.135,1.135,0,0,1-.805,1.927Zm87.27-5.781a1.135,1.135,0,0,1-.9-1.821,57.01,57.01,0,0,0,4.144-6.2,1.122,1.122,0,0,1,1.544-.409,1.135,1.135,0,0,1,.422,1.544,60.222,60.222,0,0,1-4.316,6.441,1.135,1.135,0,0,1-.884.475Zm-96.536-6.23a1.148,1.148,0,0,1-.977-.568,61.729,61.729,0,0,1-3.445-6.943,1.135,1.135,0,0,1,2.085-.871,59.281,59.281,0,0,0,3.313,6.679,1.122,1.122,0,0,1-.409,1.544,1.082,1.082,0,0,1-.554.185Zm104.138-6.916a1.321,1.321,0,0,1-.436-.092,1.122,1.122,0,0,1-.607-1.478,56.243,56.243,0,0,0,2.389-7.061,1.135,1.135,0,1,1,2.191.581,60.225,60.225,0,0,1-2.495,7.352,1.148,1.148,0,0,1-1.069.726Zm-109.972-7.1a1.109,1.109,0,0,1-1.082-.832,60.114,60.114,0,0,1-1.531-7.6,1.135,1.135,0,0,1,.977-1.32,1.109,1.109,0,0,1,1.32.964,56.9,56.9,0,0,0,1.465,7.312,1.135,1.135,0,0,1-.805,1.386,1.1,1.1,0,0,1-.33.119ZM309.36,223.3h-.145a1.135,1.135,0,0,1-.977-1.32,58.082,58.082,0,0,0,.475-7.444v-.224a1.135,1.135,0,1,1,2.257,0v.224a60.444,60.444,0,0,1-.488,7.748,1.148,1.148,0,0,1-1.122,1.016Zm-115.885-7.537a1.082,1.082,0,0,1-1.135-1.069h1.135l-1.135-.092a61.079,61.079,0,0,1,.488-7.642,1.135,1.135,0,0,1,2.244.29,56.584,56.584,0,0,0-.475,7.325,1.175,1.175,0,0,1-1.122,1.188Zm115.846-7.919a1.122,1.122,0,0,1-1.109-.99,57.2,57.2,0,0,0-1.478-7.3,1.135,1.135,0,1,1,2.178-.594,59.188,59.188,0,0,1,1.531,7.6,1.135,1.135,0,0,1-.964,1.32ZM195.4,200.728h-.277a1.122,1.122,0,0,1-.805-1.32,60.286,60.286,0,0,1,2.468-7.365,1.136,1.136,0,0,1,2.1.871,55.725,55.725,0,0,0-2.389,7.075,1.135,1.135,0,0,1-1.1.779Zm110-7.536a1.122,1.122,0,0,1-1.043-.7,59.192,59.192,0,0,0-3.326-6.665,1.122,1.122,0,0,1,.409-1.544,1.135,1.135,0,0,1,1.544.4,61.821,61.821,0,0,1,3.458,6.943,1.135,1.135,0,0,1-.607,1.478A1.32,1.32,0,0,1,305.4,193.192Zm-104.152-6.507a1.214,1.214,0,0,1-.568-.145,1.122,1.122,0,0,1-.409-1.544,60.158,60.158,0,0,1,4.29-6.454,1.135,1.135,0,1,1,1.8,1.32,57.544,57.544,0,0,0-4.131,6.2,1.122,1.122,0,0,1-1.03.66Zm96.509-6.6a1.135,1.135,0,0,1-.9-.449,58.29,58.29,0,0,0-4.936-5.583,1.135,1.135,0,1,1,1.584-1.61,58.078,58.078,0,0,1,5.134,5.821,1.122,1.122,0,0,1-.884,1.821Zm-87.389-5.372a1.135,1.135,0,0,1-.805-1.927,63.089,63.089,0,0,1,5.807-5.134,1.135,1.135,0,0,1,1.32,1.8,58.465,58.465,0,0,0-5.6,4.936A1.122,1.122,0,0,1,210.37,174.713Zm76.553-5.28a1.135,1.135,0,0,1-.686-.238,56.758,56.758,0,0,0-6.2-4.118,1.135,1.135,0,0,1,1.122-1.967,60.16,60.16,0,0,1,6.454,4.29,1.135,1.135,0,0,1-.686,2.033ZM222.433,165.4a1.122,1.122,0,0,1-.568-2.1,56.518,56.518,0,0,1,6.929-3.458,1.135,1.135,0,0,1,.871,2.085A56.944,56.944,0,0,0,223,165.237a1.162,1.162,0,0,1-.568.145Zm51.29-3.537a1.148,1.148,0,0,1-.422-.079,56.377,56.377,0,0,0-7.075-2.376,1.135,1.135,0,0,1,.568-2.191,60.3,60.3,0,0,1,7.365,2.468,1.135,1.135,0,0,1-.436,2.178Zm-37.313-2.323a1.135,1.135,0,0,1-.3-2.217,60.109,60.109,0,0,1,7.6-1.531,1.135,1.135,0,1,1,.3,2.244A55.16,55.16,0,0,0,236.7,159.5a1.094,1.094,0,0,1-.264.04Zm22.636-1.544H258.9a58.081,58.081,0,0,0-7.272-.462h-.172a1.135,1.135,0,1,1,0-2.257h.158a60.2,60.2,0,0,1,7.576.475,1.135,1.135,0,0,1,.977,1.32,1.148,1.148,0,0,1-1.1.924Z" transform="translate(-188.473 -150.216)" fill="#fff" stroke="#343a40" stroke-miterlimit="10" stroke-width="1"/>
      <circle id="Elipse_16" data-name="Elipse 16" cx="46.961" cy="46.961" r="46.961" transform="translate(16.235 17.409)" fill="#fff" stroke="#343a40" stroke-miterlimit="10" stroke-width="1"/>
      <path id="Trazado_156" data-name="Trazado 156" d="M209.2,195.312c-.634,2.64-.594,4.778-1.993,7.4a11.034,11.034,0,0,0-1.848,6.494c0,3.748-1.135,14.967,5.477,13.2,5.478-1.439,2.481-8.645,6.375-11.786,1.835-1.491,4.224-.9,5.345-3.286,1.03-2.165-.317-4.5,1.491-6.507,3.22-3.577,9.9-2.072,12.288-6.362-3.96-2.3-8.328-4.237-6.124-10.137.818-2.191,3.432-3.96,3.418-6.6,0-3.432-2.481-.99-4.725-2.745-1.874-1.439,0-4.158-1.689-5.412a2.983,2.983,0,0,0-2.64,0,37.6,37.6,0,0,0-16.261,14.69C214.4,183.433,209.714,193.042,209.2,195.312Z" transform="translate(-184.332 -145.738)" fill="#343a40" stroke="#343a40" stroke-miterlimit="10" stroke-width="1"/>
      <path id="Trazado_157" data-name="Trazado 157" d="M222.411,200.928c-1.4,1.32-3.326,0-4.791,1.214-.594.5-1.4,5.477-.845,6.322,1.953,2.9,6.467-5.477,6.6-7.365a.884.884,0,0,0-.964-.172Z" transform="translate(-180.716 -135.633)" fill="#343a40" stroke="#343a40" stroke-miterlimit="10" stroke-width="1"/>
      <path id="Trazado_158" data-name="Trazado 158" d="M273.106,221.607a9.765,9.765,0,0,0-1.65-2.442,3.471,3.471,0,0,0-3.59-.33l-5.055,2.178c-3.128,1.32-6.969.422-10.242,1.874-5.055,2.231-13.278,11.325-2.363,9.12,1.32-.277,3.036-1.32,4.276-.581a54.63,54.63,0,0,1,0,5.6,47.172,47.172,0,0,0,18.623-15.416Z" transform="translate(-171.686 -129.994)" fill="#343a40" stroke="#343a40" stroke-miterlimit="10" stroke-width="1"/>
      <path id="Trazado_159" data-name="Trazado 159" d="M266.38,219.866a2.64,2.64,0,0,0,1.425-1.716c-.462.581-.937,1.135-1.425,1.689Z" transform="translate(-164.789 -130.101)" fill="#00b298" stroke="#343a40" stroke-miterlimit="10" stroke-width="1"/>
      <path id="Trazado_160" data-name="Trazado 160" d="M266.053,214.3c-1.452,2.1.686,4.408.594,6.784.488-.554.964-1.109,1.425-1.689C268.785,217.214,268.257,213.915,266.053,214.3Z" transform="translate(-165.056 -131.343)" fill="#343a40" stroke="#343a40" stroke-miterlimit="10" stroke-width="1"/>
      <path id="Trazado_161" data-name="Trazado 161" d="M264.656,209.466c-1.808,1.425-4.408.607-6.124,2.019a2.957,2.957,0,0,0,.95,5.095c3.7,1.491,3.564-2.151,4.593-4.224.449-.9,2.283-1.861,2.217-2.9C266.188,207.723,265.422,208.858,264.656,209.466Z" transform="translate(-167.645 -133.177)" fill="#343a40" stroke="#343a40" stroke-miterlimit="10" stroke-width="1"/>
      <path id="Trazado_162" data-name="Trazado 162" d="M251.19,206.862c0,1.65.977,3.445.95,5.161,0,1.188-.884,7.259,2.019,3.234,1.1-1.518.158-7.919-1.571-9.543C251.982,205.159,251.2,206.413,251.19,206.862Z" transform="translate(-169.648 -134.124)" fill="#343a40" stroke="#343a40" stroke-miterlimit="10" stroke-width="1"/>
      <path id="Trazado_163" data-name="Trazado 163" d="M268.73,202.5c-.37-.884-2.336-1.188-2.2.211.277,4.026-2.745,5.451.079,9.384,1.32-1.32,1.32-2.64,1.544-4.474.079-.541-.3-1.65-.264-2.244C267.938,204.35,268.967,203.835,268.73,202.5Z" transform="translate(-165.106 -135.347)" fill="#343a40" stroke="#343a40" stroke-miterlimit="10" stroke-width="1"/>
      <path id="Trazado_164" data-name="Trazado 164" d="M237.817,185.6c-.99-1.439-1.1-1.109-1.32-2.957-.33-2.125.436-3.96-.752-5.821a6.6,6.6,0,0,0-2.561-2.112h0a1.94,1.94,0,0,0-1.782,0c-1.689,0-3.5.132-4.29,1.689-.66,1.32-.343,4.633-.673,6.3-1.32,6.6,2.838,6.6,8.144,6.6,1.835,0,5.187.911,4.95-1.663C239.414,186.723,238.266,186.209,237.817,185.6Z" transform="translate(-177.644 -144.065)" fill="#343a40" stroke="#343a40" stroke-miterlimit="10" stroke-width="1"/>
      <path id="Trazado_165" data-name="Trazado 165" d="M278.533,207.616c2.9-1.5-.436-2.561-.779-4.171-.422-2.059,1.967-3.524,1.082-5.715,3.075-1.729,2.983,3.352,3.023,5.174,2.838,0,.158-4.25-.119-5.649-.462-2.363.871-3.96.568-6.362a6.733,6.733,0,0,0-.185-1.069,47.238,47.238,0,0,0-16.617-18.8l-.33.211c-3.155,2.64.752,3.352.224,5.425-.3,1.214-1.874.911-2.772,1.1.2,0-3.432.436-2.93.62a.224.224,0,0,1-.29.158c-.211-2.64-2.64-5.082-5.187-3.3-2.363-2.442,1.531-4.3,1.808-6.758-1.412-.066-3.115-.33-4.276.568-1.531,1.175-.766,2.64-2.745,3.168-.277.079-1.32-.766-1.98-.515-.99.4-1.016,1.412-1.584,2.217a22.768,22.768,0,0,1-2.8,4.1c-1.32,1.109-2.006,2.165-2.8,0-.884-2.376,1.623-2.257,1.98-4.118.488-2.64-5.134-3.96-4.7.238-2.033.172-3.577-1.874-5.992-1.6-3.221.37-2.217,1.32.554,2.191,5.543,1.8,5.055,4.1,6.362,8.975,1.452,5.359,7.167,2.917,7.339,8.276.079,2.719.9,3.405,1.848,5.755,1.043,2.64.092,3.616-.5,6.005-.409,1.676-1.544,4.606.568,4.95,2.165-1.1,3.788-1.4,4.923-3.828.568-1.214-.224-1.716,1.109-2.547,1.109-.7,2.481.185,3.55.092,1.993-.172,3.841-1.94,5.741-.581,2.64,1.887.422,4.144.832,6.322s3.366,2.64,3.96,4.58-3.036,3.036-2.561,5c.964,3.96,2.64-1.914,3.009-2.27.686-.594,2.323,0,2.838-.66s.277-2.64.211-3.366c-.224-2.178-1.425-3.59,1.32-4.4C274.2,206.467,276.7,208.566,278.533,207.616Z" transform="translate(-176.705 -146.017)" fill="#343a40" stroke="#343a40" stroke-miterlimit="10" stroke-width="1"/>
      <path id="Trazado_166" data-name="Trazado 166" d="M239.681,165.181a6.418,6.418,0,0,0-.5-.541,47.512,47.512,0,0,0-10.559,1.32,1.861,1.861,0,0,1,1.135.95c.977,1.716-1.716,4.3.752,5,1.452.409,1.61-1.32,2.719-1.623a10.758,10.758,0,0,1,2.64-.158c1.9,0,3.524,1.32,4.765-.924a8.646,8.646,0,0,0-1-.739C239.931,166.963,240.723,166.435,239.681,165.181Z" transform="translate(-176.868 -147.218)" fill="#343a40" stroke="#343a40" stroke-miterlimit="10" stroke-width="1"/>
      <path id="Trazado_167" data-name="Trazado 167" d="M231.818,201c-19.93,0-36.1,11.879-36.1,26.6a21.712,21.712,0,0,0,5.768,14.387L189.41,259.589l22.662-9.754a45.483,45.483,0,0,0,19.8,4.356c19.93,0,36.1-11.879,36.1-26.609S251.748,201,231.818,201Z" transform="translate(-189.41 -135.587)" fill="#fff" stroke="#343a40" stroke-miterlimit="10" stroke-width="1"/>
      <path id="Trazado_168" data-name="Trazado 168" d="M231.571,231.148H217.844l-2.481,5.939H209.78L222.108,209h5.57l12.169,28.1h-5.781Zm-1.927-4.62-4.9-11.8-4.976,11.8Z" transform="translate(-182.894 -133.028)" fill="#343a40" stroke="#343a40" stroke-miterlimit="10" stroke-width="1"/>
      <path id="Trazado_169" data-name="Trazado 169" d="M269.747,151.44c17.488,0,31.677,10.44,31.677,23.335a19.151,19.151,0,0,1-5.055,12.631l10.559,15.443-19.891-8.54a40.058,40.058,0,0,1-17.33,3.814c-17.5,0-31.677-10.453-31.677-23.349S252.245,151.44,269.747,151.44Z" transform="translate(-173.858 -151.44)" fill="#fff" stroke="#343a40" stroke-miterlimit="10" stroke-width="1"/>
      <path id="Trazado_170" data-name="Trazado 170" d="M272.526,160.71v2.864l-12.552,14.9h12.71v3.564H254.47v-2.891l12.539-14.875H254.826V160.71Z" transform="translate(-168.599 -148.475)" fill="#343a40" stroke="#343a40" stroke-miterlimit="10" stroke-width="1"/>
    </g>
  </g>
</svg>
