<svg id="Capa_1" data-name="Capa 1" xmlns="http://www.w3.org/2000/svg" width="28" height="28" viewBox="0 0 28 28"><defs><style>.cls-1{fill:#212529;}</style></defs><path id="linkedin_hero" data-name="linkedin hero" class="cls-1" d="M0,3.25A3.11,3.11,0,0,1,1,.92,3.33,3.33,0,0,1,3.4,0,3.3,3.3,0,0,1,5.81.9a3.31,3.31,0,0,1,1,2.44A3,3,0,0,1,5.84,5.6a3.39,3.39,0,0,1-2.49.93h0A3.17,3.17,0,0,1,0,3.52ZM.35,28V9.11h6V28Zm9.33,0h6V17.45a4.2,4.2,0,0,1,.21-1.53A4.12,4.12,0,0,1,17,14.3,2.9,2.9,0,0,1,19,13.63q3,0,3,4.27V28h6V17.17q0-4.19-1.89-6.35a6.33,6.33,0,0,0-5-2.17,6.08,6.08,0,0,0-5.43,3.14v.06h0l0-.06V9.11h-6c0,.6.05,2.48.05,5.63s0,7.57-.05,13.26Z" transform="translate(0 0)"/></svg>