<svg xmlns="http://www.w3.org/2000/svg" width="28" height="28" viewBox="0 0 28 28">
  <path id="linkedin_footer" d="M0,8.253A3.115,3.115,0,0,1,.946,5.919,3.38,3.38,0,0,1,3.405,5a3.28,3.28,0,0,1,2.405.905,3.266,3.266,0,0,1,.946,2.432A3.046,3.046,0,0,1,5.838,10.6a3.387,3.387,0,0,1-2.486.933H3.324A3.172,3.172,0,0,1,0,8.253ZM.351,33V14.107h6V33Zm9.324,0h6V22.451a4.244,4.244,0,0,1,.216-1.527A4.094,4.094,0,0,1,17.041,19.3a2.853,2.853,0,0,1,1.932-.665Q22,18.632,22,22.9V33h6V22.168q0-4.186-1.892-6.349a6.317,6.317,0,0,0-5-2.164,6.076,6.076,0,0,0-5.432,3.139v.057h-.027l.027-.057V14.107h-6q.054.905.054,5.628T9.676,33Z" transform="translate(0 -5)" fill="#ced4da"/>
</svg>
