<svg xmlns="http://www.w3.org/2000/svg" width="28" height="54.705" viewBox="0 0 28 54.705">
  <g id="mano_abajo_4" transform="translate(-0.088 0.031)">
    <path id="Trazado_47" data-name="Trazado 47" d="M27.863,21.934a4.677,4.677,0,0,1,.223,1.576,7.829,7.829,0,0,1-2.553,3.923c-.411.428-.788.822-1.1,1.2a.36.36,0,0,1-.188.137,16.121,16.121,0,0,1-.343,1.713v.274a27.24,27.24,0,0,0-1.285,8.566v.1a84.7,84.7,0,0,1-.257,8.566,9.265,9.265,0,0,1-.154,1.422,1.192,1.192,0,0,1-.086.548,6.647,6.647,0,0,1-1.628,3.7,3.529,3.529,0,0,1-2.433,1.011,2.758,2.758,0,0,1-2.381-1.319,9.628,9.628,0,0,1-.874-5.14v-.086c0-.959.086-1.936.154-2.861v-.291c.086-1.319.24-2.655.394-3.94.1-.857.206-1.713.291-2.587.1-1.234.154-2.467.188-3.546a3.118,3.118,0,0,1-2.33,1.353,2.758,2.758,0,0,1-1.713-.617,4.643,4.643,0,0,1-1.422-1.85h0a3.426,3.426,0,0,1-3.1.977A3.718,3.718,0,0,1,4.7,31.819a1.867,1.867,0,0,1-1.319.548,2.193,2.193,0,0,1-1.473-.634C.4,30.312.195,28.016.195,25.977V24.761A32.379,32.379,0,0,1,.88,15.013,2.789,2.789,0,0,1,1,14.5a8.7,8.7,0,0,1,1.114-3.2c.223-.326.428-.617.651-.908A10.9,10.9,0,0,0,4.135,8.194,3.152,3.152,0,0,1,2.867,5.47,5.14,5.14,0,0,1,5.283,1.736,14.339,14.339,0,0,1,14.894.228h.343c2.81.36,7.058.942,8,4.232a4.129,4.129,0,0,1-.463,3.135,1.4,1.4,0,0,1-1.011.6,3.032,3.032,0,0,0,.942.874l.565.326a7.264,7.264,0,0,1,2.09,1.49,10.913,10.913,0,0,1,2.073,5.756c0,.668.086,1.371.1,2.039a15.168,15.168,0,0,0,.137,2.279,8.07,8.07,0,0,0,.188.977Zm-.086,1.542A4.626,4.626,0,0,0,27.571,22a8.12,8.12,0,0,1-.206-.959c0-.771-.1-1.542-.12-2.313a12.581,12.581,0,0,0-.12-2.022,10.416,10.416,0,0,0-2-5.568,6.853,6.853,0,0,0-2-1.439l-.565-.326a3.426,3.426,0,0,1-1.182-1.2L21.2,7.92h.308a1.148,1.148,0,0,0,1.028-.48,3.786,3.786,0,0,0,.411-2.878C22.055,1.479,17.926.93,15.185.571h-.326A14.117,14.117,0,0,0,5.437,1.993a4.831,4.831,0,0,0-2.4,3.649,2.9,2.9,0,0,0,1.2,2.518h.1v.12a11.256,11.256,0,0,1-1.456,2.347l-.651.908A8.874,8.874,0,0,0,1.154,14.67a4.214,4.214,0,0,1-.12.5A32.414,32.414,0,0,0,.349,24.83a7.7,7.7,0,0,0,.1,1.234c.12,1.97.257,4.214,1.713,5.551a1.713,1.713,0,0,0,2.553-.1l.206-.257v.326a3.529,3.529,0,0,0,2.416,3,3.05,3.05,0,0,0,2.878-.908l.206-.188.171-.171v.223A4.163,4.163,0,0,0,12,35.451,2.4,2.4,0,0,0,13.438,36a3.169,3.169,0,0,0,2.381-1.61l.291-.428v.514c0,1.2-.086,2.621-.223,4.043-.086.874-.188,1.713-.291,2.6-.137,1.285-.308,2.621-.377,3.923v.291c0,.942-.137,1.9-.137,2.844v.086a9.474,9.474,0,0,0,.805,4.865A2.5,2.5,0,0,0,18.029,54.3a3.272,3.272,0,0,0,2.227-.908,6.442,6.442,0,0,0,1.49-3.426l.1-.548c0-.428.1-.908.137-1.388.291-2.793.274-6.3.274-8.566v-.206a27.1,27.1,0,0,1,1.285-8.566v-.274a13.963,13.963,0,0,0,.343-1.833v-.12h.1a.343.343,0,0,0,.137,0c.308-.394.685-.788,1.1-1.216a7.4,7.4,0,0,0,2.553-3.769Z" transform="translate(0 0)" fill="#231f20"/>
    <path id="Trazado_48" data-name="Trazado 48" d="M27.7,21.994a4.641,4.641,0,0,1,.207,1.482,7.441,7.441,0,0,1-2.486,3.7c-.414.431-.794.827-1.105,1.223a.346.346,0,0,1-.138,0h-.155v.1a14.011,14.011,0,0,1-.345,1.843v.276a27.2,27.2,0,0,0-1.3,8.614v.276c0,2.343,0,5.875-.276,8.614a4.623,4.623,0,0,1-.138,1.4l-.1.551a6.47,6.47,0,0,1-1.5,3.445,3.3,3.3,0,0,1-2.245.913A2.523,2.523,0,0,1,15.922,53.3a9.507,9.507,0,0,1-.812-4.961v-.086a19.829,19.829,0,0,1,.138-2.86V45.1a37.653,37.653,0,0,1,.38-3.945c.1-.861.207-1.723.294-2.619.138-1.43.19-2.86.224-4.066V33.95l-.294.431a3.194,3.194,0,0,1-2.348,1.688,2.421,2.421,0,0,1-1.45-.551,4.187,4.187,0,0,1-1.416-1.929v-.224l-.173.172-.259.189a3.078,3.078,0,0,1-2.849.913,3.551,3.551,0,0,1-2.435-3.015V31.3l-.207.258a1.729,1.729,0,0,1-2.573.1C.71,30.315.572,28.058.417,26.077a7.313,7.313,0,0,0-.1-1.24A32.521,32.521,0,0,1,1,15.12a4.23,4.23,0,0,0,.121-.5A8.91,8.91,0,0,1,2.2,11.5l.656-.913a11.314,11.314,0,0,0,1.468-2.36V8.109h-.1A2.909,2.909,0,0,1,3.007,5.576,4.858,4.858,0,0,1,5.424,1.907,14.257,14.257,0,0,1,14.886.391h.328c2.763.362,6.907.913,7.822,4.048a3.8,3.8,0,0,1-.414,2.894,1.158,1.158,0,0,1-1.036.482h-.311l.173.258A3.449,3.449,0,0,0,22.639,9.28l.57.327a6.906,6.906,0,0,1,2.02,1.447,10.459,10.459,0,0,1,2.02,5.6c0,.672.086,1.378.121,2.033a22.587,22.587,0,0,0,.121,2.326,8.149,8.149,0,0,0,.207.982Zm-1.26,3.1a3.268,3.268,0,0,0,.76-2.274,1.323,1.323,0,0,0,0-.362.859.859,0,0,0,0-.207,1.169,1.169,0,0,0,0-.327,17.532,17.532,0,0,1-.294-3.29,15.024,15.024,0,0,0-.4-3.807l-.086-.31a6.146,6.146,0,0,0-1.9-3.549c-.345-.258-.708-.5-1.071-.724a9.462,9.462,0,0,1-1.433-1.034,5.337,5.337,0,0,1-1.45-2.653,2.58,2.58,0,0,0-.19-.62h0a11.471,11.471,0,0,0-5.007-.879H12.883A14.98,14.98,0,0,0,4.751,7.2h0A6.159,6.159,0,0,1,3.3,10.917a14.55,14.55,0,0,0-2.262,7.718c0,.362,0,.724,0,1.068a27.312,27.312,0,0,0,.1,6.495c0,.362.086.827.1,1.292a8.887,8.887,0,0,0,.328,2.326c.294.792,1.174,1.947,2.124,1.947a1.365,1.365,0,0,0,1.019-.517h.138v-.19a10.76,10.76,0,0,1-.086-1.5,9.841,9.841,0,0,0,1.019,2.567v.1a.722.722,0,0,0,0,.172,2.66,2.66,0,0,0,3.281,1.723,4.925,4.925,0,0,0,1.036-.534h.1a2.1,2.1,0,0,0,.276-.241h0v-.1a3.163,3.163,0,0,1-.1-.62,1.908,1.908,0,0,0,0-.293c0-.1,0-.207,0-.327a9.262,9.262,0,0,0,1.364,2.464,2.676,2.676,0,0,0,1.347.93,1.73,1.73,0,0,0,2.072-.276,5.654,5.654,0,0,0,.915-1.085l.138-.155h0v-.4a15.626,15.626,0,0,1,.363,2.584c-.1,1.4-.242,2.808-.363,4.186s-.259,2.7-.363,4.1v.9a17.825,17.825,0,0,0,.276,6.65,3.14,3.14,0,0,0,1.83,1.723,1.419,1.419,0,0,0,.483.086,2.231,2.231,0,0,0,1.191-.4h0a2.086,2.086,0,0,0,.57-.6v-.086l.155-.293a18.525,18.525,0,0,0,.742-2.085,33.45,33.45,0,0,0,.881-10.009V35.069a13.443,13.443,0,0,1,.311-2.033c.138-.62.294-1.223.449-1.826a4.717,4.717,0,0,1,.155-.672,20.975,20.975,0,0,0,.466-2.119c.311-.913.535-1.723.76-2.5v2.1l.311-.465v-.121h0l.086-.138.242-.327v-.121l.518-.62c.311-.379.622-.741.9-1.137Z" fill="#fff"/>
    <path id="Trazado_49" data-name="Trazado 49" d="M15.84,13.31a1.9,1.9,0,0,1-.44,1.32,2.27,2.27,0,0,0,.44-1.32Z" transform="translate(11.656 9.925)" fill="#231f20"/>
    <path id="Trazado_50" data-name="Trazado 50" d="M15.83,13.1a.77.77,0,0,1,0,.21,2.27,2.27,0,0,1-.44,1.32l-.05.07c-.09.12-.2.24-.3.36a7.6,7.6,0,0,0-.52.66v.07l-.14.19-.05.06v-.31h0c.12-.16.25-.32.38-.47s.31-.37.44-.55a.44.44,0,0,1,.08-.11,1.82,1.82,0,0,0,.43-1.5v-.25a9.13,9.13,0,0,1-.17-1.95,8.82,8.82,0,0,0-.23-2.16l-.05-.18a3.47,3.47,0,0,0-1-2c-.2-.15-.41-.28-.62-.41a8.27,8.27,0,0,1-.85-.61,3.43,3.43,0,0,1-.83-1.63,2.81,2.81,0,0,0-.1-.31h0a4.07,4.07,0,0,0-1-.33,6,6,0,0,1,1.14.19h0a1.341,1.341,0,0,0,.11.36,3.1,3.1,0,0,0,.78,1.54,5.48,5.48,0,0,0,.83.6c.21.13.42.27.62.42a3.57,3.57,0,0,1,1.1,2.06l.05.18a8.74,8.74,0,0,1,.23,2.21,10.2,10.2,0,0,0,.17,1.91.68.68,0,0,1,0,.19A.5.5,0,0,1,15.83,13.1Z" transform="translate(11.656)" fill="#231f20"/>
    <path id="Trazado_51" data-name="Trazado 51" d="M15.81,13a.5.5,0,0,1,0,.12.5.5,0,0,0,0-.12Z" transform="translate(11.656 9.329)" fill="#231f20"/>
    <path id="Trazado_52" data-name="Trazado 52" d="M15.65,13.08a1.82,1.82,0,0,1-.43,1.5,2.12,2.12,0,0,0,.43-1.5Z" transform="translate(11.656 9.812)" fill="#231f20"/>
    <path id="Trazado_53" data-name="Trazado 53" d="M4.14,26.215v.42a16.537,16.537,0,0,0,0,2.683,4.69,4.69,0,0,0,0,.511v.219h-.4a3.209,3.209,0,0,1-1.509-.31c-.916-.548-1.1-2.884-1.168-4v-.292a50.576,50.576,0,0,1,.126-8.159A15.28,15.28,0,0,1,3.763,8.949,5.059,5.059,0,0,0,5.128,5.7a16.5,16.5,0,0,1,7.69-2.318h2.731a19.8,19.8,0,0,1,4.761.475,5.187,5.187,0,0,1,.18.566A6.3,6.3,0,0,0,21.982,7.4a14.866,14.866,0,0,0,1.527,1.113c.377.237.755.475,1.114.748a6.371,6.371,0,0,1,1.8,3.65l.09.329a16.343,16.343,0,0,1,.413,3.942,16.92,16.92,0,0,0,.305,3.559c0,.164,0,.31,0,.456a3.913,3.913,0,0,1-.773,2.738.8.8,0,0,0-.144.2l-.413.475-.737.913a18.925,18.925,0,0,0-.18-2.738,17.759,17.759,0,0,1-.162-3.158.314.314,0,0,0-.07-.237.3.3,0,0,0-.218-.11h-.144v.128c-.126.657-.287,1.3-.431,1.953a15.146,15.146,0,0,0-.162,2.026c-.09,1.241-.18,2.519-.341,3.778a3.708,3.708,0,0,1,0,.475,5.871,5.871,0,0,1-.234,1.223v.219c-.108.493-.234.967-.359,1.424l-.27,1.15a18.812,18.812,0,0,0-.5,3.012c-.108,1.825,0,3.65,0,5.476a36.692,36.692,0,0,1-.916,10.513,17.154,17.154,0,0,1-.755,2.172l-.144.292h0a1.507,1.507,0,0,1-.449.511h0a1.9,1.9,0,0,1-1.8-.256c-1.958-2.172-1.419-5.914-.988-8.943a9.5,9.5,0,0,1,.18-1.278l.126-.949q.519-3.558.683-7.155a14.81,14.81,0,0,0-1.078-7.191.741.741,0,0,0-.18-.164v-.256l-.216.256h0c-.108,0-.162.456-.216,2.939v2.409h-.108a1.524,1.524,0,0,0-.252.274,1.8,1.8,0,0,1-1.455,1.022,2.883,2.883,0,0,1-2.156-1.716,9.559,9.559,0,0,1-.862-3.65,19.969,19.969,0,0,0-.287-2.081h0a2.361,2.361,0,0,1-.575-.475v-.237l-.216.091a.546.546,0,0,0-.27.329v.347a12.173,12.173,0,0,0-.234,2.081V29.9a8.268,8.268,0,0,0-.036,1.989,4.148,4.148,0,0,0,.09.566h.036l-.144.128h0a2.539,2.539,0,0,1-1.222.347,3.043,3.043,0,0,1-2.767-2.117,10.071,10.071,0,0,1-.467-2.774,16.047,16.047,0,0,0-.2-1.825A1.123,1.123,0,0,0,5.128,26v-.128l-.5-1.588-.18.128a.347.347,0,0,0-.162.256v.11c0,.456-.126.967-.18,1.5Z" transform="translate(0)" fill="#a5a5a5"/>
    <path id="Trazado_54" data-name="Trazado 54" d="M15.05,15.06c.1-.12.21-.24.3-.36-.16.23-.34.44-.52.66l-.3.36a7.6,7.6,0,0,1,.52-.66Z" transform="translate(11.656 10.853)" fill="#231f20"/>
    <path id="Trazado_55" data-name="Trazado 55" d="M14.12,12.61a2.528,2.528,0,0,1-.14.59c0,.35-.06.72-.09,1.09s-.07.94-.12,1.41c-.08.28-.17.59-.28.91a2,2,0,0,0,0-.26c.09-.69.14-1.39.19-2.07a4.625,4.625,0,0,1,.09-1.11c.09-.37.17-.71.24-1.07v-.07h.08a.17.17,0,0,1,.16.19A9.58,9.58,0,0,0,14.4,14a10.21,10.21,0,0,1,.1,1.5l.41-.5.23-.26c-.13.18-.28.37-.44.55s-.26.31-.38.47a7.49,7.49,0,0,0,0-1.17v-.57a11.52,11.52,0,0,1-.2-1.41Z" transform="translate(11.656 10.043)" fill="#231f20"/>
    <path id="Trazado_56" data-name="Trazado 56" d="M14.34,16l-.05.08h0Z" transform="translate(11.656 11.462)" fill="#231f20"/>
    <path id="Trazado_57" data-name="Trazado 57" d="M14.32,15.71h0v.38l-.18.27V15.14c-.13.45-.26.92-.44,1.45v-.24c0-.22.05-.45.07-.67.13-.45.24-.85.34-1.24l.12-.48.06.56v1.23Z" transform="translate(11.656 10.874)" fill="#231f20"/>
    <path id="Trazado_58" data-name="Trazado 58" d="M14.28,13.78v.76L14.23,14h0Z" transform="translate(11.656 10.09)" fill="#231f20"/>
    <path id="Trazado_59" data-name="Trazado 59" d="M14.23,14h0l-.12.48c-.1.39-.21.79-.34,1.24.05-.47.09-.95.12-1.41s.06-.74.09-1.09a2.528,2.528,0,0,1,.14-.59A11.521,11.521,0,0,0,14.23,14Z" transform="translate(11.656 9.998)" fill="#fff"/>
    <path id="Trazado_60" data-name="Trazado 60" d="M13.77,15.7a2.186,2.186,0,0,1-.07.67v.24a12.2,12.2,0,0,1-.27,1.23,1.864,1.864,0,0,1-.1.39c-.09.35-.18.7-.25,1.06a7.82,7.82,0,0,0-.18,1.18c-.06,1,0,2,0,3a19.46,19.46,0,0,1-.51,5.81,10.77,10.77,0,0,1-.43,1.21l-.09.17v.05a1.21,1.21,0,0,1-.33.35h0a1.42,1.42,0,0,1-.47.1.74.74,0,0,1-.29-.05h.07a1.1,1.1,0,0,0,.61-.21h0a.83.83,0,0,0,.25-.28h0l.08-.16a9.3,9.3,0,0,0,.42-1.19,19.8,19.8,0,0,0,.51-5.76q0-1.5,0-3a10.16,10.16,0,0,1,.28-1.7,2.694,2.694,0,0,1,.16-.62c.05-.2.13-.53.19-.79v-.12c.05-.22.1-.44.13-.67S13.69,16,13.77,15.7Z" transform="translate(9.333 22.774)" fill="#231f20"/>
    <path id="Trazado_61" data-name="Trazado 61" d="M13.36,17.28c.05-.22.09-.45.13-.67C13.46,16.84,13.41,17.06,13.36,17.28Z" transform="translate(11.656 12.123)" fill="#231f20"/>
    <path id="Trazado_62" data-name="Trazado 62" d="M13.4,17.84a1.832,1.832,0,0,1-.09.39c-.09.35-.18.7-.26,1.06.07-.36.16-.71.25-1.06C13.33,18.1,13.37,18,13.4,17.84Z" transform="translate(9.447 13.352)" fill="#231f20"/>
    <path id="Trazado_63" data-name="Trazado 63" d="M13.13,18.18c.07-.25.14-.51.2-.78-.06.26-.12.53-.19.79s-.11.41-.16.62Z" transform="translate(9.396 13.006)" fill="#231f20"/>
    <path id="Trazado_64" data-name="Trazado 64" d="M11.87,3.46v.01l-.01-.01Z" transform="translate(8.401)" fill="#231f20"/>
    <path id="Trazado_65" data-name="Trazado 65" d="M11.73,3.59h0a11.19,11.19,0,0,0-2.65-.26H7.56A9.29,9.29,0,0,0,3.28,4.65a2.75,2.75,0,0,1-.76,1.78A8.28,8.28,0,0,0,1.09,11,27.28,27.28,0,0,0,1,15.46v.16c0,.61.14,1.89.65,2.19a1.81,1.81,0,0,0,.84.17h.17v.07h0a.6.6,0,0,1-.08.08H2.51A1.85,1.85,0,0,1,1.58,18H1.53a1.82,1.82,0,0,1-.38-.6A4.76,4.76,0,0,1,1,16a2.659,2.659,0,0,0-.07-.77,6,6,0,0,1-.09-.84.13.13,0,0,1,0-.06,27.934,27.934,0,0,1,.13-3.35,8.47,8.47,0,0,1,1.4-4.63,2.68,2.68,0,0,0,.74-1.76h0A9.63,9.63,0,0,1,7.56,3.2H9.08a14.9,14.9,0,0,1,1.55.07h.06a4.07,4.07,0,0,1,1.04.32Z" fill="#231f20"/>
    <path id="Trazado_66" data-name="Trazado 66" d="M11.37,30.85Z" transform="translate(8.047 22.774)" fill="#231f20"/>
    <path id="Trazado_67" data-name="Trazado 67" d="M11,31.12a1.42,1.42,0,0,0,.47-.1,1.29,1.29,0,0,1-.69.23.82.82,0,0,1-.28-.05,1.82,1.82,0,0,1-1.06-1,10.37,10.37,0,0,1-.16-3.86c0-.18,0-.36,0-.52.06-.8.14-1.61.21-2.39s.15-1.62.21-2.43a9.09,9.09,0,0,0-.21-1.54v-.38a2.61,2.61,0,0,0,0-.28h0A9.19,9.19,0,0,1,9.86,21a24.313,24.313,0,0,1-.21,2.44c-.08.79-.14,1.59-.2,2.39v.52a10.18,10.18,0,0,0,.15,3.79,1.64,1.64,0,0,0,.95.91.8.8,0,0,0,.15,0,.74.74,0,0,0,.3.07Z" transform="translate(7.538 22.774)" fill="#231f20"/>
    <path id="Trazado_68" data-name="Trazado 68" d="M10.32,30.73a1.07,1.07,0,0,0,1,.14,1.1,1.1,0,0,1-.61.21h-.07a1.08,1.08,0,0,1-.45-.21C9,29.6,9.35,27.5,9.6,25.81a4.913,4.913,0,0,1,.1-.7l.07-.52c.16-1.28.33-2.6.37-3.91a7.93,7.93,0,0,0-.57-3.83c0,.25-.06,1.23-.09,1.94l-.15-.49c0-1.36.06-1.56.12-1.61h0l.12-.14v.14a.41.41,0,0,1,.1.09,8,8,0,0,1,.6,3.94,39.11,39.11,0,0,1-.38,3.92l-.07.52a4.536,4.536,0,0,1-.1.7C9.53,27.49,9.23,29.54,10.32,30.73Z" transform="translate(7.506 22.774)" fill="#231f20"/>
    <path id="Trazado_69" data-name="Trazado 69" d="M11.83,3.45a6,6,0,0,0-1.14-.19h-.06a9.23,9.23,0,0,0-1.7-.13H7.55A8.64,8.64,0,0,0,3,4.36a3.8,3.8,0,0,1-.81,2.15,8.12,8.12,0,0,0-1.3,4.38q0,.315,0,.63a20.42,20.42,0,0,0,0,2.82.13.13,0,0,0,0,.06c0,.36,0,.72,0,1.07v.16c.06.67.14,1.89.68,2.28a1,1,0,0,0,.68.39.56.56,0,0,0,.38-.16H2.8a.79.79,0,0,1-.59.3c-.55,0-1.06-.67-1.23-1.13A5.17,5.17,0,0,1,.77,16a2.925,2.925,0,0,0-.06-.75A15.89,15.89,0,0,1,.65,11.5c0-.2,0-.41,0-.62A8.46,8.46,0,0,1,2,6.4a3.58,3.58,0,0,0,.8-2.09h0A8.66,8.66,0,0,1,7.55,3H9a6.63,6.63,0,0,1,2.83.45Z" fill="#231f20"/>
    <path id="Trazado_70" data-name="Trazado 70" d="M10.66,31.07a.8.8,0,0,1-.15,0,1.64,1.64,0,0,1-.95-.91,10.18,10.18,0,0,1-.15-3.79c0-.18,0-.35,0-.52.06-.8.13-1.61.2-2.39s.16-1.62.21-2.44a9.19,9.19,0,0,0-.37-2.18h0a10.977,10.977,0,0,1,.09-1.94,7.93,7.93,0,0,1,.57,3.83,31.746,31.746,0,0,1-.37,3.91l-.07.52a6.543,6.543,0,0,1-.1.7c-.25,1.69-.56,3.79.61,5.05A1.08,1.08,0,0,0,10.66,31.07Z" transform="translate(7.166 22.774)" fill="#fff"/>
    <path id="Trazado_71" data-name="Trazado 71" d="M10.63,3.25a14.9,14.9,0,0,0-1.55-.07H7.56A9.63,9.63,0,0,0,3.15,4.52h0a2.68,2.68,0,0,1-.74,1.76A8.47,8.47,0,0,0,.91,11c-.08,1-.15,2.2-.13,3.35a20.42,20.42,0,0,1,0-2.82q0-.315,0-.63a8.12,8.12,0,0,1,1.3-4.38A3.8,3.8,0,0,0,3,4.36,8.64,8.64,0,0,1,7.55,3.14H8.93a9.23,9.23,0,0,1,1.7.11Z" fill="#fff"/>
    <path id="Trazado_72" data-name="Trazado 72" d="M9.33,18.3l.15.49a2.61,2.61,0,0,1,0,.28v.61h0l-.08.09h0a.56.56,0,0,0-.11.11,1.13,1.13,0,0,1-1,.64,1.07,1.07,0,0,1-.52-.14.82.82,0,0,0,1-.14,4,4,0,0,0,.55-.64h0v-.55C9.32,18.84,9.32,18.52,9.33,18.3Z" transform="translate(6.121 14.051)" fill="#231f20"/>
    <path id="Trazado_73" data-name="Trazado 73" d="M9.33,19.83h0a3.28,3.28,0,0,1-.53.63,1,1,0,0,1-1.2.16,1.55,1.55,0,0,1-.78-.54,5.38,5.38,0,0,1-.79-1.43c0-.19,0-.4,0-.6A5,5,0,0,0,7,19.94a1.18,1.18,0,0,0,.67.47h0a1.07,1.07,0,0,0,.52.14,1.13,1.13,0,0,0,1-.64.56.56,0,0,1,.14-.08Z" transform="translate(5.31 14.087)" fill="#231f20"/>
    <path id="Trazado_74" data-name="Trazado 74" d="M9.21,19.7h.06a4,4,0,0,1-.55.64.82.82,0,0,1-1,.14h0a2.44,2.44,0,0,1-.8-.86,5.63,5.63,0,0,1-.5-2.09,9.43,9.43,0,0,0-.16-1.12h0v.1A10.59,10.59,0,0,0,6.07,18a.56.56,0,0,1,0-.12l-.12-.44h0A6.57,6.57,0,0,1,6,16.29V16.1a.3.3,0,0,1,.15-.18l.12-.05V16a1.31,1.31,0,0,0,.06.27h0a10.78,10.78,0,0,1,.16,1.14,5.17,5.17,0,0,0,.48,2,1.6,1.6,0,0,0,1.2.94,1,1,0,0,0,.81-.56.84.84,0,0,1,.23-.09Z" transform="translate(5.244 13.308)" fill="#231f20"/>
    <path id="Trazado_75" data-name="Trazado 75" d="M7.7,20.42h0a1.18,1.18,0,0,1-.7-.48A5,5,0,0,1,6.07,18h0a10.59,10.59,0,0,1,.13-1.65v-.1h0a9.43,9.43,0,0,1,.16,1.12,5.63,5.63,0,0,0,.5,2.09,2.44,2.44,0,0,0,.84.96Z" transform="translate(4.739 13.356)" fill="#fff"/>
    <path id="Trazado_76" data-name="Trazado 76" d="M5.89,19.47v.06a1.57,1.57,0,0,1-.77.21H4.87a1.12,1.12,0,0,0,.4-.07,2.61,2.61,0,0,0,.56-.28h0l.17-.1H6A2.24,2.24,0,0,1,5.93,19a9.5,9.5,0,0,1,0-1.52l.12.44a.56.56,0,0,0,0,.12h0v.51a2.36,2.36,0,0,0,0,.28,1.11,1.11,0,0,1,0,.17,1.37,1.37,0,0,0,.05.25v.06h0a1.22,1.22,0,0,1-.16.14H6Z" transform="translate(3.688 13.44)" fill="#231f20"/>
    <path id="Trazado_77" data-name="Trazado 77" d="M6.1,19a1.84,1.84,0,0,0,.05.25A1.37,1.37,0,0,1,6.1,19Z" transform="translate(4.301 13.68)" fill="#231f20"/>
    <path id="Trazado_78" data-name="Trazado 78" d="M6.07,18.62v.19a2.36,2.36,0,0,1,0-.28Z" transform="translate(4.265 13.355)" fill="#231f20"/>
    <path id="Trazado_79" data-name="Trazado 79" d="M6,19.28Z" transform="translate(4.217 13.773)" fill="#231f20"/>
    <path id="Trazado_80" data-name="Trazado 80" d="M6,19.52H6a2.85,2.85,0,0,1-.6.31,1.54,1.54,0,0,1-1.9-1,.42.42,0,0,1,0-.1v-.06a5.72,5.72,0,0,1-.59-1.49c0-.22,0-.45,0-.67a6.42,6.42,0,0,0,.72,2.09v.16a1.43,1.43,0,0,0,1.27.94h.25a1.57,1.57,0,0,0,.77-.21v-.06Z" transform="translate(2.482 13.195)" fill="#231f20"/>
    <path id="Trazado_81" data-name="Trazado 81" d="M5.91,17.43h0a9.5,9.5,0,0,0,0,1.52,4.46,4.46,0,0,1-.07-1.06V17.3Z" transform="translate(4.117 13.034)" fill="#231f20"/>
    <path id="Trazado_82" data-name="Trazado 82" d="M5.84,19.38h0a2.61,2.61,0,0,1-.56.28,1.12,1.12,0,0,1-.4.07h0a2,2,0,0,1-1.36-1.24,5.63,5.63,0,0,1-.27-1.58,8.11,8.11,0,0,0-.12-1v-.07a.46.46,0,0,1,0-.13L3,15.33c-.05.36-.1.76-.14,1.18l-.11-.59a6.57,6.57,0,0,1,.1-.82V15a.19.19,0,0,1,.09-.14l.1-.07.21.86v.07a.61.61,0,0,1,.05.12,8.66,8.66,0,0,1,.11,1,5.44,5.44,0,0,0,.26,1.52,1.69,1.69,0,0,0,1.46,1.16,1.43,1.43,0,0,0,.71-.14Z" transform="translate(2.342 12.505)" fill="#231f20"/>
    <path id="Trazado_83" data-name="Trazado 83" d="M4.9,19.72a1.43,1.43,0,0,1-1.27-.94v-.16a6.42,6.42,0,0,1-.72-2.09h0a8.3,8.3,0,0,1,.14-1.18l.09.38a.46.46,0,0,0,0,.13v.07a8.11,8.11,0,0,1,.12,1,5.63,5.63,0,0,0,.27,1.58A2,2,0,0,0,4.9,19.72Z" transform="translate(2.292 12.709)" fill="#fff"/>
    <path id="Trazado_84" data-name="Trazado 84" d="M2.87,18.07v.09H2.59a.6.6,0,0,0,.08-.08h0v-.19a2.62,2.62,0,0,1,0-.28,8.92,8.92,0,0,1,0-1.47v-.2l.11.59h0v.67a6.26,6.26,0,0,0,.09.87Z" transform="translate(0 12.242)" fill="#231f20"/>
    <path id="Trazado_85" data-name="Trazado 85" d="M2.88,18.16v.02H2.85Z" transform="translate(0 12.982)" fill="#231f20"/>
    <path id="Trazado_86" data-name="Trazado 86" d="M2.73,15.89h0v0Z" transform="translate(0 11.427)" fill="#231f20"/>
    <path id="Trazado_87" data-name="Trazado 87" d="M2.66,17.59a2.62,2.62,0,0,0,0,.28,2.53,2.53,0,0,1,0-.28Z" transform="translate(0 12.679)" fill="#231f20"/>
    <path id="Trazado_88" data-name="Trazado 88" d="M2.51,18.15h.08a.56.56,0,0,1-.38.16,1,1,0,0,1-.68-.39h.05a1.85,1.85,0,0,0,.93.23Z" transform="translate(0 12.961)" fill="#fff"/>
    <path id="Trazado_89" data-name="Trazado 89" d="M1.14,17.31a1.82,1.82,0,0,0,.38.6C1,17.52.9,16.3.84,15.63V14.4a6,6,0,0,0,.09.84c0,.22.05.49.07.77a4.76,4.76,0,0,0,.14,1.3Z" transform="translate(0 11.564)" fill="#231f20"/>
  </g>
</svg>
